<?xml version="1.0" encoding="UTF-8"?>
<svg id="Layer_1" data-name="Layer 1" xmlns="http://www.w3.org/2000/svg" viewBox="0 0 1256.25 385.94">
  <defs>
    <style>
      .cls-1 {
        fill: #231f20;
      }
    </style>
  </defs>
  <path class="cls-1" d="m379.49,186.52c0,51.83-18.65,95.83-55.96,132.03-37.3,36.2-81.93,54.3-133.89,54.3s-96.55-18.1-133.79-54.3C18.62,282.36,0,238.35,0,186.52S18.68,90.56,56.05,54.1C93.16,18.04,137.7,0,189.65,0s96.48,18.04,133.59,54.1c37.5,36.46,56.25,80.6,56.25,132.42Zm-12.7,1.37v-6.84c-33.73-3.64-50.65-5.47-50.78-5.47-.78,0-9.38.85-25.78,2.54l9.77,18.75-25,8.98-14.26-32.23-4.49,2.73c8.07,14.84,12.5,29.17,13.28,42.97-8.33,9.9-16.67,19.99-25,30.27.13,22.01-2.22,41.99-7.03,59.96l-25,21.48-17.97-11.72c-1.56-25.13-5.73-50.45-12.5-75.98l-15.23-21.48-33.98-8.01-8.79-20.51,5.86-29.69c9.89-2.86,24.02-8.14,42.38-15.82,4.3,3,9.77,5.01,16.41,6.05,5.73.91,11.46,1.76,17.19,2.54.13,0,8.33,2.28,24.61,6.84,9.63,2.61,18.03,4.1,25.2,4.49l8.01-19.53h-9.77l-5.66-30.08-24.41-.98,1.56,9.77,12.3,15.62-9.77-4.88,2.34,7.23-17.19,4.1,6.64-4.88-4.88-13.87-11.52-8.2-8.98,8.2-13.09-2.34-8.01,14.65-14.84-7.42,11.52-13.87,17.19-4.88,7.23-10.55,25.39-11.52,5.66-6.45,5.66-23.63-15.43,7.81,7.03,3.91-10.94,10.16-3.91-10.94-5.47,8.59-16.41-14.06,35.16-30.47h28.91l3.12-16.99c-19.53-7.29-39.78-10.94-60.74-10.94-23.31,0-42.58,3.19-57.81,9.57,3.52,2.73,5.27,5.73,5.27,8.98,0,1.56-1.56,2.73-4.69,3.52-2.22.39-4.43.78-6.64,1.17-6.12,1.95-12.34,5.37-18.65,10.25-6.32,4.88-12.14,13.64-17.48,26.27-4.3,9.9-8.92,14.84-13.87,14.84-3.12,0-5.89-2.64-8.3-7.91-2.41-5.27-3.68-7.91-3.81-7.91-4.82,0-9.12,1.24-12.89,3.71-10.55,7.03-20.44,22.4-29.69,46.09-9.51,24.35-14.26,47.53-14.26,69.53,0,48.96,17.38,90.27,52.15,123.93,34.77,33.66,76.69,50.49,125.78,50.49s91.24-17.09,126.46-51.27c35.22-34.18,52.83-75.75,52.83-124.71Zm-208.4-122.66l-6.45,4.88-10.74,1.56,4.1-13.87h10.74l2.34,7.42Zm15.62,27.54l-5.66,6.45-2.54-7.23,4.1-6.64,4.1,7.42Zm22.66-.78l-8.79,8.98-8.2-.78,7.42-8.98-4.88-1.76-5.27-9.57,2.93-7.42,16.8,19.53Zm9.96,49.8l-.78,8.01-7.42-8.01h8.2Z"/>
  <path class="cls-1" d="m381.72,306.45V20.12h28.71v163.55l68.44-84.64h37.32l-74.82,88.57,63.83,118.85h-17.92l-56.51-106.3-20.34,24.08v82.23h-28.71Z"/>
  <path class="cls-1" d="m505.2,306.45V20.12h28.71v102.73c6.77-9.5,14.42-16.63,22.95-21.39,8.53-4.75,17.94-7.13,28.22-7.13,18.1,0,32.39,5.76,42.87,17.29,10.48,11.52,15.72,32.65,15.72,63.38v131.45h-28.71v-131.45c0-17.97-3.19-30.86-9.57-38.67-6.38-7.81-15.17-11.72-26.37-11.72-12.5,0-23.14,5.01-31.93,15.04-8.79,10.03-13.18,27.8-13.18,53.32v113.48h-28.71Z"/>
  <path class="cls-1" d="m698.98,276.37l-.16,30.08c-7.94,2.08-24.28,1.32-30.4-2.65-6.12-3.97-8.87-9.97-11.14-16.88-2.28-6.9-3.42-20.64-3.42-41.21v-119.34h-21.09v-27.34h21.09v-51.37l28.71-21.09v72.46h29.1v27.34h-29.1v121.29c0,11.2.85,18.43,2.54,21.68,2.47,4.69,7.1,7.03,13.87,7.03,3.25,0-5.21.91,0,0Z"/>
  <path class="cls-1" d="m698.83,306.45V99.02h25.98v29.3c6.24-11.39,13.88-19.9,22.91-25.54,9.03-5.63,19.4-8.45,31.1-8.45,9.1,0,17.51,1.79,25.25,5.37,7.73,3.58,13.97,8.27,18.72,14.06,4.74,5.8,8.29,13.31,10.63,22.56,2.34,9.25,3.51,23.44,3.51,42.58v127.54h-28.71v-126.31c0-15.25-1.3-26.4-3.91-33.44-2.61-7.04-6.67-12.48-12.21-16.33-5.54-3.84-11.95-5.77-19.24-5.77-13.8,0-24.8,5.15-33.01,15.45-8.2,10.3-12.3,27.96-12.3,52.98v113.4h-28.71Z"/>
  <path class="cls-1" d="m951.99,280.86c-9.64,10.03-19.66,17.58-30.08,22.66-10.42,5.08-21.22,7.62-32.42,7.62-17.71,0-31.84-5.34-42.38-16.02-10.55-10.67-15.82-25.06-15.82-43.16,0-11.98,2.47-22.59,7.42-31.84,4.95-9.24,11.72-16.47,20.31-21.68,8.59-5.21,21.61-9.05,39.06-11.52,23.44-3.44,40.62-7.54,51.56-12.3l.2-8.98c0-14.19-2.54-24.15-7.62-29.88-7.16-8.33-18.16-12.5-33.01-12.5-13.41,0-23.44,2.78-30.08,8.34-6.64,5.56-11.52,16-14.65,31.3l-28.32-4.69c4.03-22.27,12.21-38.48,24.51-48.63s29.91-15.23,52.83-15.23c17.84,0,31.84,3.35,41.99,10.06,10.16,6.71,16.57,15.01,19.24,24.9,2.67,9.9,4,24.35,4,43.36v46.88c0,32.81.62,53.49,1.86,62.01,1.24,8.53-.58,16.83,3.07,24.9h-25.82c-3-7.16-4.95-15.69-5.86-25.59Zm-2.34-78.51c-10.55,5.21-26.24,9.64-47.07,13.28-12.11,2.08-20.58,4.46-25.39,7.13-4.82,2.67-8.56,6.45-11.23,11.33-2.67,4.88-4,10.52-4,16.89,0,9.9,3.06,17.81,9.18,23.73,6.12,5.93,14.58,8.89,25.39,8.89s19.63-2.67,28.03-8.01c8.4-5.34,14.68-12.47,18.85-21.39,4.17-8.92,6.25-21.91,6.25-38.96v-12.89Z"/>
  <path class="cls-1" d="m983.67,306.45V99.02h25.98v31.45c6.64-14.58,12.73-24.25,18.26-29,5.53-4.75,11.75-7.13,18.65-7.13,9.63,0,19.46,3.78,29.49,11.33l-9.77,32.62c-7.16-5.08-14.13-7.62-20.9-7.62-6.12,0-11.72,2.15-16.8,6.45s-8.66,10.29-10.74,17.97c-3.65,13.41-5.47,27.67-5.47,42.77v108.59h-28.71Z"/>
  <path class="cls-1" d="m1043.87,306.45v-40.04h32.81v40.04h-32.81Z"/>
  <path class="cls-1" d="m1086.09,385.94V99.02h26.56v26.95c6.5-11.2,13.71-19.27,21.64-24.22,7.93-4.95,17.03-7.42,27.3-7.42,13.39,0,25.48,3.97,36.27,11.91,10.79,7.94,19.46,20.02,26.03,36.23,6.56,16.21,9.85,35.71,9.85,58.5,0,35.29-7.39,62.47-22.17,81.54-14.78,19.08-32.13,28.61-52.05,28.61-8.86,0-17.12-2.28-24.8-6.84-7.68-4.56-14.33-11-19.92-19.34v100.98h-28.71Zm26.21-182.03c0,26.83,4.48,46.58,13.44,59.28,8.96,12.7,19.81,19.04,32.54,19.04s22.92-6.57,32.14-19.73c9.22-13.15,13.83-33.46,13.83-60.94s-4.48-47.13-13.44-60.16c-8.96-13.02-19.87-19.53-32.73-19.53-11.56,0-22.08,7-31.56,21-9.48,14-14.22,34.34-14.22,61.04Z"/>
  <path class="cls-1" d="m1227.54,306.45V20.12h28.71v286.33h-28.71Z"/>
</svg>