<?xml version="1.0" encoding="UTF-8"?>
<svg id="Layer_1" data-name="Layer 1" xmlns="http://www.w3.org/2000/svg" viewBox="0 0 4096 4096">
  <defs>
    <style>
      .cls-1 {
        fill: #fff;
      }

      .cls-2 {
        fill: #fad4e4;
      }

      .cls-3 {
        fill: none;
        stroke: #ed1c24;
        stroke-miterlimit: 10;
        stroke-width: 40px;
      }

      .cls-4 {
        fill: #ed1c24;
      }

      .cls-5 {
        fill: #231f20;
      }
    </style>
  </defs>
  <g>
    <path class="cls-5" d="m2047.63623046875,3598.63671875c-209.4033203125,0-412.51953125-41.001953125-603.70556640625-121.8671875-91.8935546875-38.8671875-180.52783203125-86.9765625-263.44189453125-142.9931640625-82.13818359375-55.490234375-159.3779296875-119.2197265625-229.5751953125-189.4169921875-70.19677734375-70.197265625-133.92626953125-147.4375-189.41748046875-229.5751953125-56.01611328125-82.9140625-104.12548828125-171.548828125-142.99267578125-263.4423828125-80.865234375-191.1865234375-121.8671875-394.3017578125-121.8671875-603.70556640625,0-209.4033203125,41.001953125-412.51953125,121.8671875-603.70556640625,38.8671875-91.8935546875,86.9765625-180.52783203125,142.99267578125-263.44189453125,55.4912109375-82.13818359375,119.220703125-159.3779296875,189.41748046875-229.5751953125,70.197265625-70.19677734375,147.43701171875-133.92626953125,229.5751953125-189.41748046875,82.9140625-56.01611328125,171.54833984375-104.12548828125,263.44189453125-142.99267578125,191.18603515625-80.865234375,394.30224609375-121.8671875,603.70556640625-121.8671875,209.40380859375,0,412.51904296875,41.001953125,603.70556640625,121.8671875,91.8935546875,38.8671875,180.5283203125,86.9765625,263.4423828125,142.99267578125,82.1376953125,55.4912109375,159.3779296875,119.220703125,229.5751953125,189.41748046875,70.197265625,70.197265625,133.9267578125,147.43701171875,189.4169921875,229.5751953125,56.0166015625,82.9140625,104.1259765625,171.54833984375,142.9931640625,263.44189453125,80.865234375,191.18603515625,121.8671875,394.30224609375,121.8671875,603.70556640625,0,209.40380859375-41.001953125,412.51904296875-121.8671875,603.70556640625-38.8671875,91.8935546875-86.9765625,180.5283203125-142.9931640625,263.4423828125-55.490234375,82.1376953125-119.2197265625,159.3779296875-189.4169921875,229.5751953125s-147.4375,133.9267578125-229.5751953125,189.4169921875c-82.9140625,56.0166015625-171.548828125,104.1259765625-263.4423828125,142.9931640625-191.1865234375,80.865234375-394.3017578125,121.8671875-603.70556640625,121.8671875Z"/>
    <path class="cls-4" d="m2047.636474609375,541.636474609375c102.23876953125,0,204.386962890625,10.29437255859375,303.60693359375,30.59814453125,96.65185546875,19.7774658203125,191.721923828125,49.28875732421875,282.568603515625,87.7137451171875,89.217041015625,37.735595703125,175.2744140625,84.44683837890625,255.78076171875,138.83624267578125,79.764404296875,53.88751220703125,154.7744140625,115.77685546875,222.9462890625,183.9493408203125,68.17236328125,68.17193603515625,130.061767578125,143.18194580078125,183.94921875,222.94622802734375,54.389404296875,80.50634765625,101.1005859375,166.5638427734375,138.83642578125,255.7806396484375,38.4248046875,90.846923828125,67.93603515625,185.9168701171875,87.713623046875,282.5687255859375,20.3037109375,99.2200927734375,30.59814453125,201.3681640625,30.59814453125,303.60693359375s-10.29443359375,204.386962890625-30.59814453125,303.60693359375c-19.777587890625,96.65185546875-49.288818359375,191.721923828125-87.713623046875,282.568603515625-37.73583984375,89.217041015625-84.447021484375,175.2744140625-138.83642578125,255.78076171875-53.887451171875,79.764404296875-115.77685546875,154.7744140625-183.94921875,222.9462890625-68.171875,68.17236328125-143.181884765625,130.061767578125-222.9462890625,183.94921875-80.50634765625,54.389404296875-166.563720703125,101.1005859375-255.78076171875,138.83642578125-90.8466796875,38.4248046875-185.916748046875,67.93603515625-282.568603515625,87.713623046875-99.219970703125,20.3037109375-201.3681640625,30.59814453125-303.60693359375,30.59814453125s-204.3868408203125-10.29443359375-303.60693359375-30.59814453125c-96.65185546875-19.777587890625-191.7218017578125-49.288818359375-282.5687255859375-87.713623046875-89.216796875-37.73583984375-175.2742919921875-84.447021484375-255.7806396484375-138.83642578125-79.7642822265625-53.887451171875-154.7742919921875-115.77685546875-222.94622802734375-183.94921875-68.1724853515625-68.171875-130.06182861328125-143.181884765625-183.9493408203125-222.9462890625-54.389404296875-80.50634765625-101.10064697265625-166.563720703125-138.83624267578125-255.78076171875-38.42498779296875-90.8466796875-67.936279296875-185.916748046875-87.7137451171875-282.568603515625-20.30377197265625-99.219970703125-30.59814453125-201.3681640625-30.59814453125-303.60693359375s10.29437255859375-204.3868408203125,30.59814453125-303.60693359375c19.7774658203125-96.65185546875,49.28875732421875-191.7218017578125,87.7137451171875-282.5687255859375,37.735595703125-89.216796875,84.44683837890625-175.2742919921875,138.83624267578125-255.7806396484375,53.88751220703125-79.7642822265625,115.77685546875-154.7742919921875,183.9493408203125-222.94622802734375,68.17193603515625-68.1724853515625,143.18194580078125-130.06182861328125,222.94622802734375-183.9493408203125,80.50634765625-54.389404296875,166.5638427734375-101.10064697265625,255.7806396484375-138.83624267578125,90.846923828125-38.42498779296875,185.9168701171875-67.936279296875,282.5687255859375-87.7137451171875,99.2200927734375-20.30377197265625,201.3681640625-30.59814453125,303.60693359375-30.59814453125m0-90c-881.4462890625,0-1596,714.5537109375-1596,1596s714.5537109375,1596,1596,1596,1596-714.5537109375,1596-1596S2929.082763671875,451.636474609375,2047.636474609375,451.636474609375h0Z"/>
  </g>
  <path class="cls-1" d="m1577.61621219879089,2772.747230955750638c5.9903564453125-20.291015625,11.9808349609375-40.58203125,17.97119140625-60.873046875,19.2071533203125-27.390625,38.0921630859375-64.450439453125,27.127685546875-98.555419921875-9.1998291015625-28.61572265625-31.897216796875-31.7705078125-58.1539306640625-67.6484375-8.942626953125-12.21923828125-40.4349365234375-58.48291015625-37.5823974609375-116.3076171875,1.9912109375-40.36376953125,21.40576171875-100.320068359375,64.879150390625-132.923095703125,11.38525390625-8.53857421875,26.6551513671875-17.54541015625,33.9163818359375-36.603759765625,8.2225341796875-21.58154296875-1.5592041015625-43.11767578125-5.2103271484375-52.01171875-24.6590576171875-60.0673828125-37.216796875-133.011962890625-62.3323974609375-278.901000976563409-2.9912109375-17.375244140625-4.9940185546875-31.27392578125-5.977294921875-38.322998046875.1785888671875-1.8065185546875,1.179931640625-10.076904296875,7.7574462890625-14.29248046875,3.9786376953125-2.5499267578125,8.133544921875-2.421630859375,9.6923828125-2.37353515625,14.513671875.4481201171875,30.5330810546875,18.2752685546875,35.208740234375,23.340576171875,20.361083984375,22.0576171875,47.6343994140625,36.5526123046875,71.010986328125,55.3846435546875,72.361572265625,54.9600830078125,89.9420166015625,49.0833740234375,95.142822265625,44.703369140625,6.296875-5.3031005859375,5.774169921875-17.9527587890625,5.1429443359375-33.2308349609375-1.33544921875-32.321533203125-14.3218994140625-42.10595703125-7.120849609375-54.5933837890625,7.3524169921875-12.7498779296875,27.1876220703125-13.18505859375,28.2197265625-25.3187255859375.3131103515625-3.6815185546875-1.2607421875-6.6053466796875-2.10986328125-8.1358642578125-42.7470703125-77.054931640625-73.582275390625-115.2926025390625-73.5823974609375-115.292724609375-39.2032470703125-48.614501953125-47.583251953125-101.07763671875-56.967041015625-159.8240966796875-9.811279296875-61.4232177734375-1.1646728515625-91.8643798828125,12.316650390625-113.307373046875,8.1888427734375-13.02490234375,17.1282958984375-21.086669921875,21.705322265625-25.1541748046875,38.9244384765625-34.5916748046875,95.88818359375-41.9542236328125,136.087890625-34.813232421875,91.2469482421875,16.2088623046875,136.7030029296875,114.350341796875,140.0439453125,121.84619140625,29.9185791015625,67.127685546875,32.8619384765625,167.1771240234375,54.5933837890625,248.4395751953125,2.4207763671875,9.05224609375,8.0880126953125,29.1395263671875,24.3892822265625,36.3326416015625,18.2650146484375,8.0596923828125,39.7406005859375-4.54345703125,41.2811279296875-5.4754638671875,39.76318359375-24.0574951171875,12.693603515625-82.239501953125,49.054931640625-148.747314453125,18.002197265625-32.9276123046875,41.974365234375-50.37646484375,85.450439453125-82.02197265625,33.148681640625-24.12841796875,67.908935546875-49.4298095703125,119.736328125-58.02197265625,25.89501953125-4.29296875,57.49169921875-9.53125,90.31201171875,5.5860595703125,58.596435546875,26.989990234375,88.90185546875,104.0367431640625,72.677001953125,160.5677490234375-3.892333984375,13.56201171875-10.912353515625,27.5093994140625-56.552490234375,71.570556640625-66.592041015625,64.2882080078125-91.134765625,91.7049560546875-122.442626953125,116.4920654296875-25.365234375,20.0821533203125-27.161865234375,16.16259765625-39.642333984375,27.9373779296875-45.980224609375,43.380126953125-68.917724609375,114.284545898438409-48.693359375,133.013793945313409,7.9130859375,7.328125,21.770263671875,4.23974609375,49.484619140625-1.936767578125,14.9501953125-5.8431396484375,30.45654296875-12.32275390625,46.417724609375-19.5166015625,16.94091796875-7.635498046875,32.9443359375-15.422241210938409,48-23.208740234375909,7.2119140625-3.0308837890625,16.007080078125-5.359130859375,21.362548828125-1.3187255859375,12.548095703125,9.466796875-2.528564453125,49.363891601563409-5.40673828125,56.967163085938409-18.224609375,48.14306640625-43.92822265625,59.404052734375-44.439453125,91.252685546875-.262451171875,16.345703125,6.245849609375,29.699951171875,11.340576171875,37.97802734375,4.146484375,5.379638671875,8.12109375,11.34033203125,11.736328125,17.93408203125,24.230712890625,44.1923828125,18.233642578125,91.104736328125,13.054931640625,115.120849609375,23.27978515625,64.192626953125,46.559326171875,128.385498046875,69.839111328125,192.578125,30.2587890625,75.983154296875,60.517578125,151.966064453125,90.7763671875,227.94921875l-186.725341796875,126.593505859375-316.4405517578125,49.054931640625-419.383544921875-96.52734375-53.80224609375-40.9287109375-3.164794921875-14.4560546875Z"/>
  <path class="cls-4" d="m2048,1195.5166015625c57.865966796875,0,115.68408203125,5.8271484375,171.847412109375,17.3199462890625,54.716064453125,11.196533203125,108.5361328125,27.9031982421875,159.96533203125,49.656005859375,50.50439453125,21.3614501953125,99.21923828125,47.8033447265625,144.791015625,78.5911865234375,45.149169921875,30.5018310546875,87.6064453125,65.5328369140625,126.193115234375,104.119384765625s73.617431640625,81.0440673828125,104.119384765625,126.193115234375c30.787841796875,45.5718994140625,57.229736328125,94.28662109375,78.59130859375,144.7908935546875,21.752685546875,51.429443359375,38.459228515625,105.2493896484375,49.65576171875,159.96533203125,11.492919921875,56.1634521484375,17.320068359375,113.9815673828125,17.320068359375,171.8475341796875s-5.8271484375,115.68408203125-17.320068359375,171.847412109375c-11.196533203125,54.716064453125-27.903076171875,108.5361328125-49.65576171875,159.96533203125-21.361572265625,50.50439453125-47.803466796875,99.21923828125-78.59130859375,144.791015625-30.501953125,45.149169921875-65.53271484375,87.6064453125-104.119384765625,126.193115234375s-81.0439453125,73.617431640625-126.193115234375,104.119384765625c-45.57177734375,30.787841796875-94.28662109375,57.229736328125-144.791015625,78.59130859375-51.42919921875,21.752685546875-105.249267578125,38.459228515625-159.96533203125,49.65576171875-56.163330078125,11.492919921875-113.9814453125,17.320068359375-171.847412109375,17.320068359375s-115.68408203125-5.8271484375-171.8475341796875-17.320068359375c-54.7159423828125-11.196533203125-108.535888671875-27.903076171875-159.96533203125-49.65576171875-50.5042724609375-21.361572265625-99.218994140625-47.803466796875-144.7908935546875-78.59130859375-45.1490478515625-30.501953125-87.6065673828125-65.53271484375-126.193115234375-104.119384765625s-73.6175537109375-81.0439453125-104.119384765625-126.193115234375c-30.787841796875-45.57177734375-57.229736328125-94.28662109375-78.5911865234375-144.791015625-21.7528076171875-51.42919921875-38.45947265625-105.249267578125-49.656005859375-159.96533203125-11.4927978515625-56.163330078125-17.3199462890625-113.9814453125-17.3199462890625-171.847412109375s5.8271484375-115.68408203125,17.3199462890625-171.8475341796875c11.196533203125-54.7159423828125,27.9031982421875-108.535888671875,49.656005859375-159.96533203125,21.3614501953125-50.5042724609375,47.8033447265625-99.218994140625,78.5911865234375-144.7908935546875,30.5018310546875-45.1490478515625,65.5328369140625-87.6065673828125,104.119384765625-126.193115234375s81.0440673828125-73.6175537109375,126.193115234375-104.119384765625c45.5718994140625-30.787841796875,94.28662109375-57.229736328125,144.7908935546875-78.5911865234375,51.429443359375-21.7528076171875,105.2493896484375-38.45947265625,159.96533203125-49.656005859375,56.1634521484375-11.4927978515625,113.9815673828125-17.3199462890625,171.8475341796875-17.3199462890625m0-40c-492.905029296875,0-892.4833984375,399.578369140625-892.4833984375,892.4833984375s399.578369140625,892.4833984375,892.4833984375,892.4833984375,892.4833984375-399.578369140625,892.4833984375-892.4833984375-399.578369140625-892.4833984375-892.4833984375-892.4833984375h0Z"/>
  <g>
    <path class="cls-1" d="m963.0703125,2796.619140625l232.19189453125-187.083984375,108.853515625,135.099609375-39.603515625,31.9091796875-77.7158203125-96.4541015625-192.58837890625,155.1748046875-31.1376953125-38.6455078125Z"/>
    <path class="cls-1" d="m1204.4453125,2752.5849609375l30.95751953125,31.107421875-22.6767578125,22.5673828125c12.3896484375-3.8310546875,24.40966796875-4.5908203125,36.06591796875-2.28125,11.654296875,2.3125,21.49169921875,7.49609375,29.5087890625,15.5517578125,14.3916015625,14.4619140625,19.88671875,33.7705078125,16.48388671875,57.9248046875s-17.77099609375,48.837890625-43.10986328125,74.0537109375c-26.6015625,26.47265625-52.17138671875,41.50390625-76.7119140625,45.0947265625-24.54296875,3.5927734375-43.998046875-1.8330078125-58.36669921875-16.2724609375-6.654296875-6.6865234375-11.22802734375-14.5302734375-13.71923828125-23.5244140625-2.4931640625-8.9970703125-2.65673828125-20.9365234375-.4931640625-35.8193359375l-77.6240234375,77.248046875-33.41650390625-33.578125,213.10205078125-212.072265625Zm-41.60888671875,107.3193359375c-17.49560546875,17.4111328125-27.56005859375,33.0546875-30.1923828125,46.935546875-2.634765625,13.87890625.04638671875,24.8310546875,8.0341796875,32.8583984375,7.60400390625,7.640625,17.81640625,10.275390625,30.64404296875,7.90234375,12.826171875-2.37109375,27.89013671875-12.1630859375,45.19287109375-29.3828125,16.42626953125-16.3466796875,25.880859375-31.0986328125,28.3642578125-44.2529296875,2.4833984375-13.1533203125-.12158203125-23.5986328125-7.8203125-31.3349609375-8.08544921875-8.1240234375-18.63916015625-11.09765625-31.65673828125-8.919921875-13.0205078125,2.1796875-27.20751953125,10.91015625-42.56591796875,26.1943359375Z"/>
    <path class="cls-1" d="m1334.76806640625,2882.5146484375l41.09375,29.2705078125-55.09912109375,150.673828125,123.73779296875-101.7822265625,39.931640625,28.443359375-172.9052734375,134.1630859375-33.5478515625,26.208984375c-13.2333984375,9.3720703125-24.06005859375,15.4248046875-32.47900390625,18.158203125-8.4189453125,2.7294921875-17.0576171875,3.291015625-25.91357421875,1.6845703125-8.85693359375-1.611328125-18.1376953125-5.869140625-27.84130859375-12.78125-7.47509765625-5.32421875-14.10546875-11.4755859375-19.89599609375-18.4521484375l22.8349609375-39.126953125c4.98583984375,5.73046875,9.87451171875,10.306640625,14.666015625,13.7197265625,7.3525390625,5.236328125,15.138671875,7.0966796875,23.35546875,5.5810546875,8.21826171875-1.51953125,18.43359375-7.642578125,30.6455078125-18.3740234375l71.4169921875-217.38671875Z"/>
    <path class="cls-1" d="m1410.23779296875,3196.490234375l94.72705078125-196.11328125,142.93017578125,69.0380859375-94.72705078125,196.1142578125-42.84228515625-20.6943359375,75.0146484375-155.302734375-57.4306640625-27.740234375-75.0146484375,155.302734375-42.6572265625-20.6044921875Z"/>
    <path class="cls-1" d="m1606.9755859375,3286.6767578125l62.4287109375-208.654296875,152.06982421875,45.4990234375-62.4287109375,208.654296875-45.58154296875-13.6376953125,49.4375-165.234375-61.10302734375-18.28125-49.4375,165.2333984375-45.38525390625-13.5791015625Z"/>
    <path class="cls-1" d="m1850.56396484375,3194.99609375l-40.8681640625-15.9970703125c8.56005859375-20.9326171875,19.4990234375-35.228515625,32.81982421875-42.8857421875,13.3173828125-7.6572265625,31.0498046875-9.7392578125,53.19970703125-6.2451171875,19.71630859375,3.109375,34.3359375,8.2568359375,43.86279296875,15.4404296875,9.5234375,7.181640625,15.763671875,15.8896484375,18.71728515625,26.1201171875,2.95361328125,10.2333984375,2.447265625,27.9208984375-1.51806640625,53.0625l-10.89453125,66.4404296875c-2.94287109375,18.6552734375-4.39306640625,32.6640625-4.34423828125,42.021484375.044921875,9.359375,1.28466796875,19.494140625,3.71630859375,30.404296875l-46.18701171875-7.28515625-2.37060546875-24.45703125c-9.46142578125,8.197265625-19.125,13.9755859375-28.99658203125,17.330078125s-19.94189453125,4.224609375-30.20361328125,2.6064453125c-17.15234375-2.7060546875-30.28466796875-10.7001953125-39.39990234375-23.98828125s-12.15869140625-29.5341796875-9.12890625-48.740234375c1.91943359375-12.169921875,5.822265625-22.4345703125,11.7080078125-30.7939453125,5.8857421875-8.3564453125,13.306640625-14.6015625,22.2626953125-18.732421875,8.95654296875-4.1318359375,22.67822265625-6.8876953125,41.16650390625-8.2705078125,22.39453125-1.5927734375,38.1904296875-3.8828125,47.38134765625-6.87109375,1.88525390625-11.9521484375,2.27685546875-19.92578125,1.1787109375-23.9267578125-1.10107421875-4.0009765625-3.72412109375-7.5458984375-7.87255859375-10.6357421875-4.1513671875-3.0908203125-10.3447265625-5.2880859375-18.58056640625-6.5869140625-8.375-1.3212890625-15.25732421875-.466796875-20.6455078125,2.556640625-5.39208984375,3.0263671875-10.39404296875,9.50390625-15.0029296875,19.43359375Zm55.07568359375,56.23046875c-6.32861328125,1.4990234375-16.0263671875,2.8857421875-29.0986328125,4.1552734375-15.05029296875,1.5126953125-25.1640625,4.22265625-30.34716796875,8.125s-8.3515625,9.5107421875-9.5048828125,16.8251953125c-1.30322265625,8.26171875.064453125,15.591796875,4.109375,21.990234375,4.04150390625,6.3994140625,9.7763671875,10.1845703125,17.20556640625,11.3564453125,6.615234375,1.04296875,13.5244140625-.189453125,20.72265625-3.7060546875s12.5361328125-8.1923828125,16.01904296875-14.02734375c3.47998046875-5.8349609375,6.51416015625-16.9501953125,9.099609375-33.33984375l1.79443359375-11.37890625Z"/>
    <path class="cls-1" d="m1990.25439453125,3369.0380859375l82.05712890625-158.15625-80.296875-142.583984375,58.150390625-1.1669921875,50.654296875,88.94140625,47.283203125-90.90625,57.560546875-1.1552734375-74.5,145.3408203125,88.3232421875,155.0869140625-60.021484375,1.2041015625-56.7568359375-100.783203125-52.7880859375,102.9814453125-59.66552734375,1.197265625Z"/>
    <path class="cls-1" d="m2252.666015625,3358.326171875l-40.6220703125-213.9716796875,44.5263671875-8.453125,25.4990234375,134.310546875,45.7744140625-147.841796875,45.9873046875-8.73046875,40.623046875,213.970703125-44.728515625,8.4912109375-26.03515625-137.134765625-46.50390625,150.90625-44.5205078125,8.453125Z"/>
    <path class="cls-1" d="m2390.01953125,3155.98828125l-14.7646484375-42.849609375,152.9794921875-52.712890625,14.7646484375,42.8505859375-54.095703125,18.6396484375,56.1865234375,163.0615234375-44.7880859375,15.4326171875-56.1865234375-163.0615234375-54.095703125,18.6396484375Z"/>
    <path class="cls-1" d="m2628.203125,3253.9599609375l-99.466796875-193.7529296875,42.14453125-21.634765625,36.24609375,70.6044921875,60.2060546875-30.9072265625-36.2470703125-70.60546875,42.14453125-21.634765625,99.466796875,193.7529296875-42.14453125,21.634765625-41.865234375-81.55078125-60.2060546875,30.9072265625,41.865234375,81.5517578125-42.1435546875,21.634765625Z"/>
    <path class="cls-1" d="m2758.7548828125,3007.033203125l-40.2724609375,17.4423828125c-8.673828125-20.8857421875-10.9833984375-38.73828125-6.92578125-53.556640625,4.0556640625-14.8173828125,15.1728515625-28.7880859375,33.3525390625-41.9150390625,16.1826171875-11.6845703125,30.18359375-18.33203125,42.0048828125-19.947265625,11.8193359375-1.61328125,22.3828125.169921875,31.6865234375,5.3486328125,9.306640625,5.1806640625,21.4091796875,18.0888671875,36.30859375,38.724609375l39.080078125,54.82421875c11.056640625,15.3125,19.8974609375,26.275390625,26.5244140625,32.880859375,6.6259765625,6.6103515625,14.6474609375,12.9287109375,24.0595703125,18.9580078125l-37.9091796875,27.3720703125-18.9140625-15.685546875c-.9384765625,12.4833984375-3.724609375,23.392578125-8.3662109375,32.7275390625-4.642578125,9.3359375-11.17578125,17.048828125-19.59765625,23.1298828125-14.078125,10.166015625-29.0302734375,13.7451171875-44.861328125,10.7373046875-15.830078125-3.0068359375-29.4365234375-12.3916015625-40.818359375-28.1552734375-7.212890625-9.9892578125-11.67578125-20.0234375-13.3876953125-30.1025390625-1.7109375-10.076171875-.8447265625-19.736328125,2.599609375-28.978515625,3.4453125-9.2421875,11.240234375-20.8662109375,23.38671875-34.873046875,14.76953125-16.9091796875,24.365234375-29.6640625,28.7822265625-38.259765625-7.0830078125-9.8095703125-12.4228515625-15.744140625-16.021484375-17.8095703125-3.6005859375-2.0634765625-7.958984375-2.73046875-13.080078125-2.0009765625-5.1240234375.7314453125-11.06640625,3.5361328125-17.826171875,8.4169921875-6.8740234375,4.9638671875-11.15625,10.4189453125-12.849609375,16.3603515625-1.6943359375,5.9462890625-.6806640625,14.0673828125,3.044921875,24.361328125Zm78.7021484375,1.0986328125c-3.4345703125,5.5234375-9.3388671875,13.33984375-17.7216796875,23.451171875-9.6142578125,11.6767578125-14.8828125,20.7255859375-15.8115234375,27.146484375-.927734375,6.421875.775390625,12.6337890625,5.1103515625,18.6376953125,4.8955078125,6.7802734375,11.0302734375,11.0185546875,18.4091796875,12.7099609375,7.376953125,1.693359375,14.11328125.3388671875,20.2109375-4.064453125,5.4296875-3.919921875,9.4638671875-9.6630859375,12.0947265625-17.23046875,2.630859375-7.56640625,3.1240234375-14.6455078125,1.484375-21.240234375-1.6416015625-6.5927734375-7.3203125-16.619140625-17.033203125-30.0703125l-6.7431640625-9.33984375Z"/>
    <path class="cls-1" d="m2824.05859375,2877.09375l31.3046875-30.7587890625,22.421875,22.8203125c-3.751953125-12.4140625-4.4345703125-24.4384765625-2.05078125-36.080078125,2.38671875-11.638671875,7.6318359375-21.4423828125,15.7392578125-29.408203125,14.552734375-14.2998046875,33.896484375-19.671875,58.029296875-16.1142578125,24.1318359375,3.556640625,48.72265625,18.08203125,73.77734375,43.5810546875,26.3017578125,26.76953125,41.169921875,52.435546875,44.603515625,76.998046875,3.4365234375,24.5654296875-2.11328125,43.9853515625-16.6435546875,58.26171875-6.7294921875,6.611328125-14.6025390625,11.1357421875-23.6123046875,13.5693359375-9.0126953125,2.435546875-20.9521484375,2.5234375-35.822265625.2646484375l76.751953125,78.115234375-33.791015625,33.201171875-210.7080078125-214.4501953125Zm107.0517578125,42.2919921875c17.298828125,17.6064453125,32.8779296875,27.7705078125,46.7421875,30.4912109375,13.861328125,2.7236328125,24.8310546875.1123046875,32.908203125-7.82421875,7.689453125-7.5546875,10.3896484375-17.75,8.0986328125-30.5927734375-2.2890625-12.8408203125-11.9853515625-27.966796875-29.09375-45.3798828125-16.2412109375-16.529296875-30.93359375-26.078125-44.0712890625-28.6455078125s-23.599609375-.029296875-31.3837890625,7.6201171875c-8.17578125,8.033203125-11.216796875,18.568359375-9.1220703125,31.599609375,2.0966796875,13.033203125,10.7353515625,27.2763671875,25.921875,42.7314453125Z"/>
    <path class="cls-1" d="m3029.0654296875,2756.515625l-33.25,28.64453125c-14.5-17.35546875-22.021484375-33.7099609375-22.560546875-49.064453125-.541015625-15.3525390625,5.91015625-32,19.3564453125-49.9453125,11.96875-15.9736328125,23.35546875-26.4892578125,34.1591796875-31.5517578125,10.8017578125-5.0595703125,21.4169921875-6.5029296875,31.841796875-4.330078125,10.4267578125,2.1748046875,25.82421875,10.8935546875,46.1923828125,26.1552734375l53.634765625,40.69921875c15.1142578125,11.32421875,26.818359375,19.158203125,35.1123046875,23.490234375,8.2939453125,4.3369140625,17.83203125,7.98046875,28.61328125,10.9326171875l-28.037109375,37.4189453125-22.7275390625-9.3408203125c2.822265625,12.1962890625,3.41015625,23.4404296875,1.7587890625,33.734375-1.6513671875,10.294921875-5.5908203125,19.603515625-11.8203125,27.9169921875-10.412109375,13.896484375-23.6201171875,21.765625-39.6279296875,23.609375-16.0078125,1.8427734375-31.791015625-3.0634765625-47.3515625-14.72265625-9.8603515625-7.3876953125-17.1083984375-15.6376953125-21.744140625-24.75-4.6337890625-9.109375-6.6845703125-18.58984375-6.1474609375-28.4375.5361328125-9.8486328125,4.515625-23.267578125,11.939453125-40.255859375,9.064453125-20.5400390625,14.4267578125-35.5732421875,16.0830078125-45.0947265625-9.6826171875-7.255859375-16.5478515625-11.330078125-20.59765625-12.23046875-4.052734375-.8984375-8.412109375-.236328125-13.0830078125,1.9853515625-4.673828125,2.2236328125-9.51171875,6.6708984375-14.5107421875,13.34375-5.0849609375,6.78515625-7.5478515625,13.267578125-7.39453125,19.4443359375.1533203125,6.181640625,3.5400390625,13.6318359375,10.1611328125,22.3486328125Zm75.458984375-22.3876953125c-1.6337890625,6.294921875-4.943359375,15.515625-9.93359375,27.6640625-5.701171875,14.0107421875-8.0361328125,24.2177734375-7.009765625,30.6240234375,1.025390625,6.40625,4.501953125,11.830078125,10.427734375,16.2705078125,6.693359375,5.0146484375,13.8115234375,7.2333984375,21.359375,6.650390625,7.5458984375-.580078125,13.57421875-3.8798828125,18.0830078125-9.8984375,4.0166015625-5.359375,6.1572265625-12.04296875,6.4150390625-20.05078125.2578125-8.0068359375-1.3798828125-14.9111328125-4.908203125-20.71875-3.5302734375-5.8046875-11.9365234375-13.6845703125-25.21484375-23.6337890625l-9.21875-6.9072265625Z"/>
  </g>
  <line class="cls-3" x1="1155.516483516484186" y1="2048.000000000000909" x2="1469.21978021978066" y2="2047.636363636363967"/>
  <line class="cls-3" x1="1345.720132053114867" y1="1933.742134781383356" x2="1348.223293464483504" y2="2161.530592491344578"/>
  <line class="cls-3" x1="1453.726441272337979" y1="1934.105771145019389" x2="1456.229602683706617" y2="2161.894228854980611"/>
  <line class="cls-3" x1="2047.897275968123722" y1="2940.483516483516723" x2="2047.897293315294519" y2="2626.780009021582373"/>
  <line class="cls-3" x1="1933.859976806567829" y1="2750.147544894065504" x2="2161.651183197845967" y2="2747.908443793041442"/>
  <line class="cls-3" x1="1934.348816802154033" y1="2642.141729782000766" x2="2162.14002319343308" y2="2639.902628680974885"/>
  <line class="cls-3" x1="2940.483516483516723" y1="2048.102643817315766" x2="2626.780009021593287" y2="2048.102728986849797"/>
  <line class="cls-3" x1="2750.147582160881939" y1="2162.14000517968816" x2="2747.908406618855224" y2="1934.348799520150351"/>
  <line class="cls-3" x1="2642.141766889073551" y1="2161.651200479853287" x2="2639.902591347043199" y2="1933.85999482031184"/>
  <line class="cls-3" x1="2048.102728846621176" y1="1155.516483516483277" x2="2048.102705346058428" y2="1469.219990978415808"/>
  <line class="cls-3" x1="2162.140024274674943" y1="1345.852457342812158" x2="1934.348817839478215" y2="1348.091553975640636"/>
  <line class="cls-3" x1="2161.651182160523604" y1="1453.858272445287184" x2="1933.859975725323238" y2="1456.09736907811839"/>
  <g>
    <path class="cls-1" d="m858.73388671875,2083.970703125l78.923828125,4.19921875c15.39501953125.8193359375,25.1337890625.388671875,29.22265625-1.29296875,4.0888671875-1.6806640625,7.45263671875-4.876953125,10.087890625-9.5888671875,2.638671875-4.7109375,4.2978515625-13.515625,4.984375-26.419921875l7.7666015625.4130859375-7.71240234375,144.9365234375-7.7666015625-.4130859375c.70166015625-13.1806640625-.0458984375-22.185546875-2.24609375-27.0166015625-2.19677734375-4.8271484375-5.2060546875-8.29296875-9.0244140625-10.39453125-3.8154296875-2.1015625-13.42041015625-3.5625-28.8154296875-4.3818359375l-184.7158203125-9.8291015625c-15.39208984375-.818359375-25.1337890625-.3876953125-29.22265625,1.29296875-4.0888671875,1.681640625-7.44775390625,4.8447265625-10.08251953125,9.484375-2.6318359375,4.642578125-4.2958984375,13.4833984375-4.98974609375,26.525390625l-7.7666015625-.4130859375,6.615234375-124.3212890625c2.1787109375-40.94775390625,11.02001953125-69.94140625,26.52001953125-86.978515625,15.50341796875-17.03369140625,34.1669921875-24.97314453125,55.99658203125-23.8115234375,18.4716796875.98291015625,33.98046875,7.57666015625,46.5205078125,19.7734375,12.54345703125,12.20068359375,20.6572265625,28.5234375,24.33837890625,48.970703125,2.63427734375,13.78271484375,3.08984375,36.8701171875,1.3662109375,69.265625Zm-139.37646484375-7.4169921875l123.00390625,6.5458984375c.5283203125-4.61328125.8525390625-8.109375.9794921875-10.49609375.91015625-17.107421875-3.458984375-30.56103515625-13.11376953125-40.35693359375-9.65185546875-9.79541015625-25.1123046875-15.25927734375-46.384765625-16.39111328125-21.1279296875-1.1240234375-36.83837890625,2.6806640625-47.12744140625,11.4150390625-10.2861328125,8.73486328125-15.9208984375,22.2890625-16.8984375,40.6591796875l-.458984375,8.6240234375Z"/>
    <path class="cls-1" d="m941.83349609375,1732.0849609375l-161.416015625-123.56494140625,30.12939453125-112.310546875,7.51220703125,2.01513671875-2.40185546875,8.9521484375c-2.18310546875,8.138671875-2.5087890625,15.03076171875-.9765625,20.67626953125.9873046875,3.90087890625,3.4384765625,7.46533203125,7.35888671875,10.6982421875,2.84765625,2.36572265625,11.1083984375,5.37890625,24.77734375,9.0458984375l181.501953125,48.69140625c14.07861328125,3.77685546875,23.07470703125,5.39306640625,26.99365234375,4.84228515625,3.9208984375-.54638671875,7.81689453125-2.7724609375,11.693359375-6.67724609375,3.8759765625-3.90185546875,6.85205078125-9.7216796875,8.92626953125-17.453125l2.4013671875-8.9521484375,7.51220703125,2.01513671875-38.64453125,144.05029296875-7.51171875-2.01513671875,2.4013671875-8.9521484375c2.18359375-8.138671875,2.5087890625-15.03076171875.9765625-20.67626953125-.98486328125-3.89697265625-3.5048828125-7.48291015625-7.5615234375-10.75244140625-2.8486328125-2.36279296875-11.17529296875-5.39697265625-24.98046875-9.1005859375l-204.03759765625-54.7373046875,222.755859375,173.1728515625-1.31005859375,4.8828125-278.130859375,40.544921875,193.88623046875,52.013671875c13.5361328125,3.63134765625,21.9501953125,5.52734375,25.24462890625,5.68212890625,7.2421875.0546875,13.7841796875-2.30029296875,19.63037109375-7.056640625,5.84619140625-4.7568359375,10.46142578125-13.4423828125,13.845703125-26.05712890625l7.51171875,2.01513671875-25.326171875,94.40625-7.51171875-2.01513671875.76416015625-2.8486328125c1.77392578125-6.0673828125,2.32177734375-12.02685546875,1.64111328125-17.88037109375-.677734375-5.8525390625-2.412109375-10.60498046875-5.205078125-14.2646484375-2.79052734375-3.6552734375-7.166015625-7.08203125-13.12841796875-10.283203125-1.41552734375-.66943359375-8.28173828125-2.65771484375-20.59912109375-5.96240234375l-174.193359375-46.73046875c-13.93896484375-3.7392578125-22.83740234375-5.32568359375-26.68896484375-4.7607421875-3.85205078125.568359375-7.71630859375,2.80322265625-11.59228515625,6.705078125-3.87646484375,3.90478515625-6.8515625,9.72119140625-8.92578125,17.45263671875l-2.34716796875,8.7490234375-7.51171875-2.01513671875,30.23876953125-112.7177734375,202.2978515625-28.8271484375Z"/>
    <path class="cls-1" d="m1005.75341796875,1181.91455078125l81.73046875,55.501953125-4.61572265625,6.79638671875c-24.8017578125-9.37060546875-47.6162109375-10.9462890625-68.44677734375-4.720703125-20.82763671875,6.22705078125-37.23974609375,18.169921875-49.2314453125,35.82861328125-10.0205078125,14.755859375-14.97900390625,31.16650390625-14.8798828125,49.2255859375.10009765625,18.0634765625,5.05712890625,34.58740234375,14.87060546875,49.56689453125,12.53564453125,19.20751953125,29.5263671875,36.09326171875,50.97265625,50.6572265625,21.10107421875,14.32958984375,42.13037109375,24.70703125,63.08984375,31.13037109375,20.96044921875,6.427734375,39.740234375,6.9580078125,56.341796875,1.59326171875,16.60009765625-5.3623046875,31.0546875-17.10693359375,43.36279296875-35.23095703125,10.09814453125-14.8701171875,16.10498046875-30.6962890625,18.013671875-47.4794921875,1.9111328125-16.78125-.41943359375-37.41796875-6.9931640625-61.9150390625l20.345703125,13.81640625c4.80322265625,22.6142578125,5.4326171875,43.20166015625,1.8896484375,61.759765625-3.54443359375,18.560546875-11.8212890625,37.42529296875-24.8388671875,56.5947265625-17.12109375,25.21240234375-37.37158203125,44.18115234375-60.7509765625,56.90771484375-23.380859375,12.72900390625-48.12646484375,17.990234375-74.2431640625,15.78759765625-26.11376953125-2.2001953125-49.837890625-10.544921875-71.169921875-25.03125-22.4892578125-15.27197265625-39.81787109375-35.65380859375-51.9814453125-61.14501953125-12.1650390625-25.4892578125-17.00537109375-52.03564453125-14.52490234375-79.63427734375,2.48046875-27.59912109375,11.3720703125-52.666015625,26.67919921875-75.20703125,11.28173828125-16.61279296875,26.79052734375-31.7158203125,46.52197265625-45.30810546875,11.43115234375-7.853515625,18.13330078125-13.23291015625,20.1064453125-16.13818359375,2.52392578125-3.716796875,3.35205078125-7.865234375,2.4814453125-12.447265625-.86962890625-4.5771484375-3.986328125-9.28369140625-9.345703125-14.11279296875l4.61572265625-6.79638671875Z"/>
    <path class="cls-1" d="m1428.34814453125,1018.74609375l44.88623046875,76.02197265625c7.4111328125,12.5517578125,12.736328125,19.984375,15.9794921875,22.29931640625,3.24267578125,2.31884765625,7.58349609375,3.4560546875,13.02587890625,3.416015625,5.439453125-.03857421875,11.60693359375-2.09375,18.5-6.16357421875l8.1630859375-4.8193359375,3.9541015625,6.69677734375-128.60986328125,75.9365234375-3.9541015625-6.697265625,8.1630859375-4.8193359375c7.1337890625-4.21240234375,12.130859375-8.87158203125,14.98828125-13.97607421875,2.14599609375-3.54443359375,2.85400390625-7.8681640625,2.1259765625-12.97265625-.380859375-3.6806640625-4.20361328125-11.67626953125-11.470703125-23.984375l-95.33056640625-161.45654296875c-7.4091796875-12.548828125-12.70556640625-19.998046875-15.888671875-22.3525390625-3.18408203125-2.349609375-7.4951171875-3.5078125-12.9345703125-3.4697265625-5.4423828125.0400390625-11.607421875,2.09375-18.50048828125,6.16357421875l-8.1630859375,4.81982421875-3.9541015625-6.697265625,128.60986328125-75.9365234375,3.9541015625,6.697265625-8.16259765625,4.8193359375c-7.13671875,4.2138671875-12.13134765625,8.87158203125-14.98828125,13.97607421875-2.1474609375,3.548828125-2.9150390625,7.90771484375-2.3076171875,13.07958984375.3779296875,3.6826171875,4.203125,11.67626953125,11.470703125,23.98486328125l41.0390625,69.505859375,86.888671875-51.302734375-41.0390625-69.505859375c-7.4091796875-12.548828125-12.7060546875-19.998046875-15.888671875-22.3525390625-3.18408203125-2.35009765625-7.5263671875-3.4892578125-13.02587890625-3.416015625-5.50146484375.0751953125-11.69775390625,2.14697265625-18.5908203125,6.216796875l-7.9814453125,4.71240234375-3.9541015625-6.69677734375,128.42822265625-75.82958984375,3.9541015625,6.697265625-7.9814453125,4.712890625c-7.255859375,4.28369140625-12.2529296875,8.94287109375-14.98828125,13.9755859375-2.1474609375,3.548828125-2.91455078125,7.90771484375-2.30712890625,13.07958984375.3779296875,3.6826171875,4.203125,11.67626953125,11.470703125,23.98486328125l95.330078125,161.4560546875c7.4111328125,12.5517578125,12.70458984375,20.00244140625,15.888671875,22.3525390625,3.18310546875,2.3544921875,7.52392578125,3.4912109375,13.02587890625,3.416015625,5.4990234375-.0732421875,11.69775390625-2.14697265625,18.5908203125-6.216796875l7.9814453125-4.71240234375,3.9541015625,6.697265625-128.42822265625,75.8291015625-3.9541015625-6.697265625,7.9814453125-4.71240234375c7.255859375-4.2841796875,12.25-8.94189453125,14.98828125-13.97607421875,2.14599609375-3.54443359375,2.916015625-7.90478515625,2.30712890625-13.07958984375-.380859375-3.6806640625-4.203125-11.67626953125-11.470703125-23.984375l-44.88623046875-76.0224609375-86.888671875,51.302734375Z"/>
    <path class="cls-1" d="m1776.55859375,1014.79345703125l-103.93994140625-120.26318359375c-15.64404296875-18.1787109375-26.39306640625-29.00390625-32.24560546875-32.4697265625-5.85546875-3.46484375-12.15869140625-5.17431640625-18.90869140625-5.1357421875l-2.30517578125-7.427734375,99.98974609375-31.03564453125,2.3056640625,7.427734375c-6.48974609375,2.31005859375-10.72265625,5.0166015625-12.6982421875,8.123046875-1.9775390625,3.11083984375-2.4658203125,6.26806640625-1.46875,9.47998046875,1.5791015625,5.087890625,8.04541015625,14.08544921875,19.40576171875,26.99072265625l54.99560546875,63.484375,4.29541015625-63.61962890625c1.640625-22.6630859375,1.236328125-37.9443359375-1.21533203125-45.8427734375-1.5361328125-4.94970703125-4.40576171875-8.388671875-8.60498046875-10.314453125-4.20166015625-1.92138671875-10.5-1.7275390625-18.8984375.58349609375l-2.30517578125-7.427734375,62.97119140625-19.54541015625,2.3056640625,7.427734375c-5.96240234375,2.58642578125-10.25537109375,6.5224609375-12.876953125,11.81005859375-2.6240234375,5.2919921875-4.81884765625,21.1943359375-6.5859375,47.7138671875l-10.53515625,155.794921875c-2.74853515625,39.00146484375-6.1611328125,63.5380859375-10.23876953125,73.607421875-5.76513671875,14.11474609375-15.623046875,23.33740234375-29.5712890625,27.66650390625-11.13427734375,3.4560546875-21.14013671875,3.07470703125-30.01904296875-1.13671875-8.88330078125-4.2138671875-14.71337890625-10.8056640625-17.49609375-19.7705078125-2.40966796875-7.76318359375-2.02392578125-14.92626953125,1.16064453125-21.48876953125,3.18017578125-6.5654296875,8.26025390625-10.927734375,15.23583984375-13.0927734375,6.705078125-2.0810546875,12.7666015625-1.6171875,18.189453125,1.39697265625,5.4189453125,3.0126953125,9.58740234375,8.9814453125,12.50634765625,17.90771484375,1.7099609375,5.0439453125,3.3310546875,8.13427734375,4.86376953125,9.27490234375,1.52880859375,1.138671875,3.30078125,1.396484375,5.31298828125.77197265625,3.21875-.9990234375,6.0361328125-4.00244140625,8.453125-9.00634765625,3.6181640625-7.28564453125,5.9365234375-22.09130859375,6.9482421875-44.41455078125l.97412109375-17.4697265625Z"/>
    <path class="cls-1" d="m1925.18505859375,701.04736328125l9.65673828125,71.2373046875,46.341796875-6.2822265625,2.79541015625,20.62158203125-46.341796875,6.28173828125,16.29248046875,120.18701171875c1.52490234375,11.248046875,3.0302734375,18.43505859375,4.51611328125,21.5546875,1.486328125,3.123046875,3.68701171875,5.5126953125,6.60498046875,7.16552734375,2.9150390625,1.65625,5.48779296875,2.33154296875,7.71533203125,2.02978515625,9.04443359375-1.22607421875,16.67138671875-9.26025390625,22.88037109375-24.10205078125l6.8837890625,3.73388671875c-7.658203125,28.18994140625-24.15234375,44.00146484375-49.47900390625,47.4345703125-12.3876953125,1.6796875-23.32373046875-.337890625-32.81396484375-6.0517578125-9.490234375-5.71337890625-15.99365234375-12.64404296875-19.5068359375-20.79541015625-2.0322265625-4.5302734375-4.458984375-17.2138671875-7.28271484375-38.04345703125l-14.25927734375-105.189453125-25.46728515625,3.4521484375-.98828125-7.2900390625c15.85986328125-14.73486328125,29.02490234375-29.74072265625,39.49609375-45.02099609375,10.47119140625-15.27734375,19.16064453125-31.9404296875,26.0673828125-49.98876953125l6.888671875-.93408203125Z"/>
    <path class="cls-1" d="m2103.734375,765.06103515625l-1.2890625,25.40185546875c10.65234375-10.40380859375,20.732421875-17.8544921875,30.2421875-22.35400390625,9.5078125-4.49658203125,19.591796875-6.47802734375,30.251953125-5.93701171875,12.76171875.6474609375,23.173828125,4.72119140625,31.23046875,12.21337890625,8.056640625,7.49560546875,13.21875,16.5615234375,15.494140625,27.2001953125,1.8359375,8.09130859375,2.18359375,23.47314453125,1.033203125,46.14599609375l-3.876953125,76.41455078125c-.767578125,15.115234375.123046875,24.5986328125,2.669921875,28.44384765625,2.546875,3.8486328125,8.140625,6.48388671875,16.7890625,7.90283203125l-.3828125,7.5576171875-99.51171875-5.048828125.3828125-7.5576171875c7.482421875-.6005859375,12.966796875-3.41015625,16.45703125-8.42578125,2.419921875-3.3828125,3.984375-12.00537109375,4.6875-25.86083984375l4.431640625-87.3310546875c.81640625-16.0927734375.69921875-26.2734375-.349609375-30.5361328125s-3.0234375-7.625-5.921875-10.08740234375c-2.900390625-2.46240234375-6.171875-3.7861328125-9.81640625-3.970703125-12.064453125-.6123046875-23.720703125,7.42578125-34.97265625,24.11328125l-5.3359375,105.17578125c-.74609375,14.69482421875.150390625,24.07373046875,2.685546875,28.12890625,2.537109375,4.05859375,7.494140625,6.7666015625,14.880859375,8.12158203125l-.3828125,7.55712890625-99.5126953125-5.048828125.38330078125-7.5576171875c8.31689453125-.419921875,14.34228515625-2.77783203125,18.0771484375-7.08056640625,2.5390625-2.9560546875,4.1943359375-11.99462890625,4.9609375-27.109375l5.6240234375-110.84375c.75244140625-14.8330078125-.146484375-24.13916015625-2.69677734375-27.9189453125-2.55029296875-3.7763671875-8.14599609375-6.44482421875-16.7841796875-8.0078125l.39404296875-7.76708984375,80.15771484375,4.06640625Z"/>
    <path class="cls-1" d="m2351.7275390625,970.12939453125c-28.462890625,14.640625-51.9560546875,19.62158203125-70.47265625,14.94775390625-10.8955078125-2.75-19.048828125-8.60205078125-24.4638671875-17.556640625-5.4189453125-8.955078125-6.7705078125-18.79833984375-4.060546875-29.533203125,3.6689453125-14.537109375,13.2314453125-26.03564453125,28.693359375-34.490234375,15.458984375-8.455078125,46.662109375-17.0185546875,93.607421875-25.693359375l4.8359375-19.15771484375c3.634765625-14.400390625,5.138671875-23.66796875,4.5185546875-27.80126953125-.6240234375-4.13134765625-2.7626953125-8.1396484375-6.4150390625-12.02587890625-3.6572265625-3.88330078125-8.20703125-6.515625-13.6513671875-7.8896484375-8.853515625-2.23486328125-16.6337890625-2.1015625-23.3466796875.39404296875-4.16015625,1.5517578125-6.6484375,3.95849609375-7.4716796875,7.2197265625-.7197265625,2.85302734375.29296875,6.86865234375,3.0439453125,12.04150390625,3.6982421875,7.1494140625,4.86328125,13.4423828125,3.4921875,18.875-1.6806640625,6.65869140625-5.5986328125,11.703125-11.7509765625,15.13623046875-6.1552734375,3.4326171875-13.248046875,4.1357421875-21.2802734375,2.10791015625-8.5791015625-2.1650390625-15.111328125-6.5576171875-19.59375-13.18359375-4.486328125-6.623046875-5.8515625-13.400390625-4.1015625-20.330078125,2.46875-9.78271484375,8.70703125-18.1435546875,18.71484375-25.0849609375,10.0078125-6.9384765625,22.556640625-11.03369140625,37.646484375-12.28564453125,15.0888671875-1.2490234375,30.1201171875.01513671875,45.1005859375,3.7958984375,18.1083984375,4.57080078125,31.4716796875,12.029296875,40.087890625,22.36767578125,8.61328125,10.3408203125,13.35546875,20.38916015625,14.2255859375,30.14794921875.46484375,6.1875-1.890625,19.5419921875-7.0693359375,40.056640625l-18.673828125,73.98291015625c-2.1953125,8.69677734375-3.236328125,14.25-3.1201171875,16.6640625.1142578125,2.41357421875.71484375,4.3369140625,1.8037109375,5.7666015625,1.0849609375,1.4326171875,2.5146484375,2.369140625,4.2861328125,2.81640625,3.5390625.8935546875,7.783203125-.7080078125,12.728515625-4.80859375l4.8935546875,6.43798828125c-9.349609375,8.337890625-18.2392578125,13.861328125-26.669921875,16.57373046875-8.4345703125,2.71142578125-17.2822265625,2.900390625-26.5400390625.5634765625-10.8955078125-2.75-18.7607421875-7.44482421875-23.6025390625-14.0869140625-4.8408203125-6.64208984375-6.6416015625-15.29736328125-5.39453125-25.9677734375Zm3.755859375-14.8779296875l16.1015625-63.79248046875c-18.9130859375,5.490234375-33.7734375,12.72119140625-44.5849609375,21.69921875-7.162109375,5.99658203125-11.6865234375,12.73388671875-13.572265625,20.20458984375-1.578125,6.25146484375-.720703125,12.3212890625,2.5732421875,18.2099609375,2.4755859375,4.52734375,6.7802734375,7.56494140625,12.908203125,9.111328125,6.8076171875,1.71826171875,15.666015625-.09033203125,26.57421875-5.4326171875Z"/>
    <path class="cls-1" d="m2591.0966796875,878.0888671875l-18.294921875,40.63427734375c20.2509765625-13.1640625,36.2236328125-20.765625,47.921875-22.7998046875,11.6943359375-2.03271484375,21.705078125-1.17724609375,30.0302734375,2.5712890625,7.1708984375,3.22802734375,11.9072265625,8.01171875,14.21484375,14.3525390625,2.3037109375,6.33935546875,1.6455078125,13.53515625-1.9794921875,21.5849609375-3.8544921875,8.5625-8.9296875,14.27001953125-15.2177734375,17.123046875-6.2919921875,2.8544921875-12.3828125,2.9541015625-18.271484375.302734375-6.7890625-3.056640625-11.69921875-7.87890625-14.7373046875-14.47314453125-3.0390625-6.59130859375-4.892578125-10.3466796875-5.556640625-11.26171875-.9365234375-1.34375-2.2373046875-2.390625-3.900390625-3.13916015625-3.7158203125-1.6728515625-7.869140625-1.8505859375-12.462890625-.5400390625-7.208984375,1.98095703125-13.966796875,6.39111328125-20.2802734375,13.23046875-9.6806640625,10.54931640625-17.8828125,23.29931640625-24.6142578125,38.24951171875l-18.5537109375,41.208984375-4.640625,10.8203125c-3.279296875,7.283203125-4.9326171875,12.150390625-4.955078125,14.59716796875-.0166015625,4.14208984375,1.119140625,7.689453125,3.41015625,10.64111328125,2.287109375,2.953125,6.9326171875,6.2333984375,13.93359375,9.84619140625l-3.107421875,6.900390625-97.001953125-43.67431640625,3.1064453125-6.900390625c8.0966796875,2.87841796875,14.34375,3.115234375,18.73828125.71435546875,4.3916015625-2.40283203125,10.09765625-11.39599609375,17.1171875-26.9873046875l44.6162109375-99.09326171875c4.6015625-10.22119140625,7.0224609375-16.96923828125,7.265625-20.2421875.328125-4.15283203125-.349609375-7.609375-2.0322265625-10.3662109375-1.6875-2.7548828125-5.458984375-5.8359375-11.31640625-9.24462890625l3.1923828125-7.091796875,73.3759765625,33.03662109375Z"/>
    <path class="cls-1" d="m3141.40625,1204.06787109375l-75.9384765625,65.79296875-5.103515625-5.890625c14.5947265625-25.09619140625,21.134765625-49.4375,19.6162109375-73.01904296875-1.521484375-23.58447265625-9.58984375-43.81201171875-24.2119140625-60.6884765625-13.9794921875-16.13525390625-30.1396484375-25.63818359375-48.482421875-28.51171875-18.3447265625-2.87646484375-37.5478515625.478515625-57.615234375,10.060546875-20.06640625,9.58154296875-38.626953125,21.759765625-55.677734375,36.53271484375-20.65234375,17.8935546875-36.6494140625,36.025390625-47.9873046875,54.3974609375-11.3408203125,18.36962890625-15.951171875,36.1611328125-13.83203125,53.37353515625,2.1181640625,17.21044921875,9.66015625,33.29931640625,22.626953125,48.265625,4.5048828125,5.19921875,9.681640625,10.05078125,15.53125,14.55517578125,5.8466796875,4.501953125,12.3125,8.70361328125,19.3984375,12.5986328125l44.7998046875-38.81494140625c8.47265625-7.34033203125,13.447265625-12.673828125,14.92578125-15.99755859375,1.474609375-3.32421875,1.634765625-7.68798828125.4755859375-13.09375-1.162109375-5.40380859375-3.9951171875-10.71044921875-8.4990234375-15.90966796875l-4.828125-5.572265625,5.8779296875-5.0927734375,90.90234375,104.92041015625-5.8779296875,5.0927734375c-7.427734375-7.50048828125-13.3193359375-12.1083984375-17.671875-13.81591796875-4.3564453125-1.70849609375-9.1748046875-1.7626953125-14.45703125-.15576171875-2.8408203125.7890625-8.1796875,4.578125-16.0166015625,11.3681640625l-44.80078125,38.81494140625c-18.099609375-8.47607421875-35.171875-18.8173828125-51.2138671875-31.02294921875-16.0439453125-12.2080078125-31.01171875-26.32373046875-44.896484375-42.349609375-17.748046875-20.48583984375-29.7041015625-39.90283203125-35.869140625-58.25341796875-6.1640625-18.35009765625-9.2021484375-36.62255859375-9.1123046875-54.81689453125.0888671875-18.1943359375,3.2685546875-35.1201171875,9.5458984375-50.77587890625,8.177734375-20.09375,21.3232421875-37.9853515625,39.4345703125-53.67626953125,32.4091796875-28.0791015625,69.6708984375-40.390625,111.7919921875-36.93115234375,42.1162109375,3.458984375,78.166015625,22.4873046875,108.146484375,57.0908203125,9.287109375,10.71923828125,16.8076171875,21.1142578125,22.5634765625,31.1787109375,3.1962890625,5.40478515625,7.3408203125,15.05322265625,12.427734375,28.9501953125,5.0849609375,13.89453125,8.45703125,21.79931640625,10.1123046875,23.7099609375,2.5732421875,2.97021484375,6.05078125,4.79150390625,10.4296875,5.45703125,4.376953125.66796875,10.50390625-.55615234375,18.3818359375-3.662109375l5.103515625,5.89111328125Z"/>
    <path class="cls-1" d="m3148.267578125,1409.76025390625l-39.396484375,20.82666015625c24.06640625,2.05078125,41.33984375,5.8642578125,51.8203125,11.44482421875,10.4765625,5.5791015625,17.8515625,12.40283203125,22.1181640625,20.47509765625,3.67578125,6.95166015625,4.474609375,13.63623046875,2.400390625,20.05712890625-2.0751953125,6.41748046875-7.015625,11.69091796875-14.8203125,15.8173828125-8.3017578125,4.38818359375-15.8125,5.77490234375-22.5263671875,4.1640625-6.7177734375-1.6123046875-11.5859375-5.27490234375-14.603515625-10.984375-3.48046875-6.58203125-4.3935546875-13.404296875-2.740234375-20.4736328125,1.6513671875-7.06787109375,2.4951171875-11.169921875,2.533203125-12.2998046875.0869140625-1.63525390625-.296875-3.2607421875-1.1494140625-4.87255859375-1.904296875-3.6025390625-5.0732421875-6.29443359375-9.5029296875-8.08154296875-6.9052734375-2.865234375-14.9462890625-3.5361328125-24.1298828125-2.01708984375-14.119140625,2.37841796875-28.423828125,7.40087890625-42.9189453125,15.06396484375l-39.953125,21.12158203125-10.30859375,5.6875c-7.0615234375,3.7333984375-11.35546875,6.55859375-12.8759765625,8.47509765625-2.5576171875,3.25830078125-3.8408203125,6.75537109375-3.845703125,10.4921875-.0087890625,3.7353515625,1.6416015625,9.1767578125,4.9462890625,16.328125l-6.689453125,3.53662109375-49.71875-94.0478515625,6.6904296875-3.53662109375c4.62109375,7.24462890625,9.404296875,11.2685546875,14.34765625,12.0732421875,4.94140625.8017578125,14.9677734375-2.7900390625,30.083984375-10.78125l96.0751953125-50.7900390625c9.91015625-5.2392578125,15.96484375-9.07666015625,18.1669921875-11.51025390625,2.8095703125-3.07568359375,4.3984375-6.2197265625,4.763671875-9.4287109375.361328125-3.21044921875-.7216796875-7.9580078125-3.2509765625-14.24609375l6.8759765625-3.634765625,37.6083984375,71.14111328125Z"/>
    <path class="cls-1" d="m3239.3798828125,1601.60986328125c5.8505859375,16.1025390625,7.1455078125,32.59228515625,3.8828125,49.46630859375-3.26171875,16.87451171875-11.2275390625,31.68212890625-23.890625,44.4287109375-12.6669921875,12.74462890625-28.0849609375,22.4189453125-46.2607421875,29.02294921875-26.2109375,9.52294921875-50.5634765625,10.82421875-73.0546875,3.90576171875-27.1884765625-8.35302734375-45.9375-26.71728515625-56.248046875-55.09521484375-10.119140625-27.8515625-8.166015625-52.8408203125,5.8603515625-74.970703125,14.0244140625-22.12890625,33.880859375-37.8603515625,59.564453125-47.19189453125,26.4736328125-9.61865234375,52.34765625-10.31689453125,77.626953125-2.09326171875,25.275390625,8.22216796875,42.783203125,25.73046875,52.51953125,52.52734375Zm-13.7392578125,5.888671875c-2.4453125-6.73193359375-7.08203125-11.5859375-13.900390625-14.56103515625-6.8232421875-2.97705078125-17.9853515625-2.5078125-33.4833984375,1.4072265625-15.501953125,3.91259765625-36.5556640625,10.7041015625-63.1591796875,20.36962890625-14.0947265625,5.12109375-26.9287109375,10.82763671875-38.505859375,17.12841796875-8.826171875,4.84912109375-14.810546875,10.5361328125-17.9560546875,17.0576171875-3.1474609375,6.52294921875-3.6171875,12.818359375-1.4111328125,18.8916015625,2.158203125,5.939453125,5.6025390625,10.29150390625,10.3349609375,13.0546875,6.345703125,3.521484375,13.849609375,4.6787109375,22.5087890625,3.4765625,13.470703125-1.9072265625,39.23828125-9.77392578125,77.3037109375-23.60400390625,22.3896484375-8.134765625,37.3095703125-14.9775390625,44.7646484375-20.52294921875,7.451171875-5.546875,12.19921875-11.45703125,14.2470703125-17.72705078125,1.517578125-4.43896484375,1.271484375-9.42724609375-.7431640625-14.970703125Z"/>
    <path class="cls-1" d="m3318.7978515625,1922.5263671875l-150.49609375,32.02880859375c-14.66796875,3.12158203125-23.525390625,6.43994140625-26.5703125,9.9619140625-3.048828125,3.51953125-4.162109375,9.5712890625-3.3359375,18.1552734375l-7.4013671875,1.5751953125-16.70703125-78.501953125,25.7001953125-5.46923828125c-12.9267578125-6.8701171875-22.8681640625-14.37548828125-29.828125-22.51171875-6.9609375-8.14013671875-11.6552734375-17.90966796875-14.08203125-29.30908203125-2.3095703125-10.8525390625-1.0380859375-21.208984375,3.810546875-31.0712890625,4.8486328125-9.86181640625,11.419921875-17.18310546875,19.7177734375-21.96435546875,8.2939453125-4.7802734375,23.544921875-9.53369140625,45.75-14.25927734375l76.2763671875-16.2333984375c14.5263671875-3.09130859375,23.287109375-6.35595703125,26.283203125-9.79345703125,2.9921875-3.4365234375,4.1298828125-9.53076171875,3.4169921875-18.27978515625l7.6064453125-1.619140625,16.70703125,78.501953125-131.3759765625,27.95947265625c-13.7080078125,2.9169921875-22.41015625,5.44873046875-26.10546875,7.6015625-3.7001953125,2.150390625-6.2744140625,4.85205078125-7.7314453125,8.1064453125-1.45703125,3.25146484375-1.7900390625,6.73486328125-1.0009765625,10.443359375,1.052734375,4.94482421875,3.3037109375,9.13037109375,6.7568359375,12.5615234375,4.7314453125,4.73388671875,13.3310546875,9.7958984375,25.796875,15.185546875l102.798828125-21.87744140625c14.5263671875-3.091796875,23.2880859375-6.3564453125,26.283203125-9.7939453125,2.9931640625-3.4365234375,4.130859375-9.53076171875,3.4169921875-18.27978515625l7.607421875-1.619140625,16.7060546875,78.501953125Z"/>
    <path class="cls-1" d="m3159.330078125,2077.81640625l-72.931640625,5.65234375c-10.0595703125.779296875-16.8408203125,2.115234375-20.3505859375,4.0078125-3.5068359375,1.888671875-5.9697265625,4.58203125-7.3857421875,8.072265625s-1.7451171875,10.134765625-.9853515625,19.9375l-7.75390625.6015625-8.6767578125-111.94384765625,7.7548828125-.60107421875c.9541015625,8.658203125,3.896484375,14.91064453125,8.83203125,18.75390625,3.4326171875,2.5498046875,11.8525390625,3.30712890625,25.2646484375,2.267578125l206.8486328125-16.0322265625c13.8310546875-1.072265625,22.541015625-3.3681640625,26.13671875-6.8857421875,3.5908203125-3.52001953125,5.30859375-9.91943359375,5.15234375-19.20361328125l7.75390625-.60107421875,6.3818359375,82.330078125-25.7783203125,1.998046875c10.591796875,6.078125,18.3974609375,12.51953125,23.423828125,19.3125,7.357421875,9.7109375,11.5048828125,20.587890625,12.4384765625,32.630859375,1.1171875,14.419921875-2.4072265625,27.8984375-10.5703125,40.435546875-8.1669921875,12.53515625-20.0078125,22.501953125-35.5263671875,29.904296875-15.5224609375,7.400390625-32.5009765625,11.81640625-50.943359375,13.244140625-19.8408203125,1.5390625-38.2158203125-.2421875-55.125-5.33984375-16.912109375-5.1015625-30.130859375-13.373046875-39.662109375-24.81640625-9.53125-11.4453125-14.8720703125-24.591796875-16.0224609375-39.4296875-.8359375-10.78515625.7607421875-21.05078125,4.78125-30.796875,3.0888671875-7.28515625,8.7373046875-15.1171875,16.943359375-23.498046875Zm21.166015625-1.640625c-16.11328125,13.361328125-23.6357421875,26.90234375-22.572265625,40.626953125.5859375,7.560546875,5.05078125,13.48046875,13.39453125,17.765625,12.2998046875,6.369140625,34.9345703125,8.279296875,67.91015625,5.72265625,33.8095703125-2.619140625,56.6220703125-8.40234375,68.4404296875-17.34765625,7.8291015625-5.9609375,11.3984375-13.421875,10.7041015625-22.380859375-1.0966796875-14.14453125-12.197265625-24.97265625-33.2998046875-32.4921875l-104.5771484375,8.10546875Z"/>
  </g>
  <path class="cls-2" d="m1775.4176025390625,1516.6922607421875c-4.2930908203125,2.048828125-22.4052734375,11.19384765625-33.2308349609375,30.857177734375-13.658935546875,24.809814453125-7.08251953125,50.67919921875,3.1649169921875,90.989013671875,4.7083740234375,18.521240234375,13.017333984375,44.0308837890625,28.4835205078125,72,14.8795166015625,26.908203125,29.8885498046875,44.34716796875,34.02197265625,49.054931640625,23.3299560546875,26.5711669921875,38.0560302734375,43.34326171875,62.5054931640625,47.8681640625,21.1329345703125,3.9111328125,49.9639892578125-1.211181640625,63.3375244140625-20.437255859375,9.4725341796875-13.617919921875,9.092041015625-28.8983154296875,8.506591796875-35.501953125-.5025634765625-13.1768798828125-1.9779052734375-32.5946044921875-6.5694580078125-55.6212158203125-5.3109130859375-26.6343994140625-12.97998046875-46.4814453125-16.2769775390625-55.800048828125-16.2635498046875-45.966796875-24.3953857421875-68.9501953125-41.8768310546875-90.177978515625-12.2510986328125-14.876708984375-27.8560791015625-33.8258056640625-54.5933837890625-39.164794921875-24.16162109375-4.82470703125-43.802978515625,4.1827392578125-47.4725341796875,5.9339599609375Z"/>
  <path class="cls-2" d="m2437.428466796875,1611.48779296875c7.606201171875,8.585693359375,17.966552734375,23.2066650390625,19.467041015625,42.7196044921875,2.174072265625,28.2752685546875-15.477783203125,50.93408203125-44.191650390625,86.7642822265625-12.4921875,15.58837890625-31.0576171875,36.6666259765625-56.5751953125,58.966796875-10.1416015625,9.634033203125-25.61572265625,22.9874267578125-46.30419921875,35.95947265625-30.487548828125,19.1162109375-50.02685546875,31.3675537109375-74.10205078125,27.8111572265625-19.741943359375-2.9161376953125-46.1201171875-16.9915771484375-51.8984375-43.5181884765625-.1533203125-.7039794921875-.26953125-1.556396484375-.521728515625-3.25732421875-.3544921875-2.3914794921875-3.39111328125-23.833740234375.379150390625-45.4720458984375,4.003662109375-22.9771728515625,14.6552734375-40.278564453125,22.15380859375-52.2198486328125,13.5087890625-21.512451171875,26.87109375-34.453369140625,46.681396484375-53.010986328125,6.283203125-5.8858642578125,36.89892578125-34.2845458984375,78.32958984375-59.340576171875,6.404052734375-3.873046875,30.260498046875-17.9927978515625,56.722412109375-18.91455078125,3.626220703125-.1263427734375,6.004150390625.0198974609375,7.34326171875.163330078125,20.44970703125,2.190185546875,34.9560546875,15.1583251953125,42.5166015625,23.348876953125Z"/>
  <path class="cls-1" d="m943.85711669921875,2560.296630859375c-37.18682861328125,26.19775390625-74.37359619140625,52.395751953125-111.5604248046875,78.593505859375l43.5164794921875-126.06591796875-105.23077392578125-79.120849609375h132.13189697265625c13.6263427734375-42.02197265625,27.25274658203125-84.0439453125,40.87908935546875-126.06591796875,13.80218505859375,41.230712890625,27.60443115234375,82.46142578125,41.4066162109375,123.692138671875,44.2197265625-.087890625,88.4395751953125-.17578125,132.6593017578125-.263671875-35.5164794921875,26.46142578125-71.032958984375,52.923095703125-106.5494384765625,79.384521484375l42.725341796875,128.967041015625-109.97808837890625-79.120849609375Z"/>
  <path class="cls-1" d="m3215.153839446686106,2560.296630859375c-37.186767578125,26.19775390625-74.37353515625,52.395751953125-111.5604248046875,78.593505859375l43.5164794921875-126.06591796875-105.230712890625-79.120849609375h132.1318359375c13.6263427734375-42.02197265625,27.2528076171875-84.0439453125,40.879150390625-126.06591796875,13.8021240234375,41.230712890625,27.6043701171875,82.46142578125,41.4066162109375,123.692138671875l132.6591796875-.263671875c-35.516357421875,26.46142578125-71.032958984375,52.923095703125-106.54931640625,79.384521484375l42.725341796875,128.967041015625-109.9781494140625-79.120849609375Z"/>
</svg>